<svg width="67" height="58" viewBox="0 0 67 58" fill="none" xmlns="http://www.w3.org/2000/svg">
<rect x="4" width="58" height="58" rx="8" fill="black"/>
<path d="M28.7555 14.352V37.5C28.7555 38.364 28.8515 38.916 29.0435 39.156C29.2595 39.396 29.7275 39.516 30.4475 39.516L30.5915 41.784C29.9915 42 29.3555 42.108 28.6835 42.108C26.8115 42.108 25.6955 41.256 25.3355 39.552C24.0635 41.472 22.1675 42.432 19.6475 42.432C17.4875 42.432 15.7235 41.616 14.3555 39.984C13.0115 38.328 12.3395 35.904 12.3395 32.712C12.3395 29.52 13.1195 27 14.6795 25.152C16.2635 23.28 18.6275 22.344 21.7715 22.344C22.7315 22.344 23.7635 22.476 24.8675 22.74V14.856L28.7555 14.352ZM17.5235 37.896C18.2435 38.904 19.2755 39.408 20.6195 39.408C21.9635 39.408 23.0075 38.928 23.7515 37.968C24.4955 37.008 24.8675 35.868 24.8675 34.548V25.836C24.0515 25.524 22.9835 25.368 21.6635 25.368C19.7195 25.368 18.3635 25.992 17.5955 27.24C16.8275 28.488 16.4435 30.324 16.4435 32.748C16.4435 35.148 16.8035 36.864 17.5235 37.896ZM31.757 42V16.296C33.629 16.008 36.497 15.864 40.361 15.864C42.953 15.864 45.005 16.584 46.517 18.024C48.053 19.44 48.821 21.132 48.821 23.1C48.821 25.524 47.861 27.42 45.941 28.788C48.269 30.06 49.433 32.076 49.433 34.836C49.433 36.924 48.677 38.712 47.165 40.2C45.677 41.688 43.421 42.432 40.397 42.432C36.797 42.432 33.917 42.288 31.757 42ZM35.861 27.492H42.305C42.569 27.276 42.773 27.108 42.917 26.988C43.085 26.868 43.265 26.7 43.457 26.484C43.649 26.244 43.817 25.992 43.961 25.728C44.321 25.056 44.501 24.336 44.501 23.568C44.501 20.592 42.761 19.104 39.281 19.104C38.537 19.104 37.397 19.152 35.861 19.248V27.492ZM35.861 38.976C37.829 39.12 39.173 39.192 39.893 39.192C41.813 39.192 43.157 38.808 43.925 38.04C44.717 37.272 45.113 36.18 45.113 34.764C45.113 33.324 44.705 32.244 43.889 31.524C43.097 30.78 41.729 30.408 39.785 30.408H35.861V38.976Z" fill="url(#paint0_linear_0_1)"/>
<path d="M0.585547 32.744L1.32155 30.927L9.16455 26.488L10.1765 28.167L3.32255 32.031L10.1305 35.872L9.39455 37.712L0.585547 32.744Z" fill="white"/>
<path d="M51.9176 39.15H50.1236L56.0116 21.44H57.8056L51.9176 39.15ZM66.6845 30.456L65.9485 32.273L58.1055 36.712L57.0935 35.033L63.9475 31.169L57.1395 27.328L57.8755 25.488L66.6845 30.456Z" fill="white"/>
<defs>
<linearGradient id="paint0_linear_0_1" x1="-24.2018" y1="-28" x2="118.12" y2="4.25534" gradientUnits="userSpaceOnUse">
<stop stop-color="#565656"/>
<stop offset="1" stop-color="white"/>
</linearGradient>
</defs>
</svg>







